<svg width="21" height="21" viewBox="0 0 21 21" fill="none" xmlns="http://www.w3.org/2000/svg">
<path d="M10.3967 6.91012C8.5237 6.91012 6.99522 8.43861 6.99522 10.3116C6.99522 12.1845 8.5237 13.713 10.3967 13.713C12.2696 13.713 13.7981 12.1845 13.7981 10.3116C13.7981 8.43861 12.2696 6.91012 10.3967 6.91012ZM20.5985 10.3116C20.5985 8.90302 20.6112 7.50723 20.5321 6.10123C20.453 4.46812 20.0805 3.01874 18.8863 1.82454C17.6895 0.627779 16.2427 0.257779 14.6096 0.178676C13.201 0.0995726 11.8052 0.112331 10.3992 0.112331C8.99067 0.112331 7.59487 0.0995726 6.18887 0.178676C4.55577 0.257779 3.10639 0.630331 1.91218 1.82454C0.715426 3.0213 0.345426 4.46812 0.266323 6.10123C0.187219 7.50978 0.199978 8.90557 0.199978 10.3116C0.199978 11.7176 0.187219 13.1159 0.266323 14.5219C0.345426 16.155 0.717978 17.6044 1.91218 18.7986C3.10894 19.9954 4.55577 20.3654 6.18887 20.4445C7.59743 20.5236 8.99322 20.5108 10.3992 20.5108C11.8078 20.5108 13.2036 20.5236 14.6096 20.4445C16.2427 20.3654 17.692 19.9928 18.8863 18.7986C20.083 17.6018 20.453 16.155 20.5321 14.5219C20.6138 13.1159 20.5985 11.7201 20.5985 10.3116ZM10.3967 15.5452C7.50046 15.5452 5.16308 13.2078 5.16308 10.3116C5.16308 7.41537 7.50046 5.07799 10.3967 5.07799C13.2929 5.07799 15.6303 7.41537 15.6303 10.3116C15.6303 13.2078 13.2929 15.5452 10.3967 15.5452ZM15.8446 6.08592C15.1684 6.08592 14.6223 5.53985 14.6223 4.86364C14.6223 4.18743 15.1684 3.64137 15.8446 3.64137C16.5208 3.64137 17.0669 4.18743 17.0669 4.86364C17.0671 5.02421 17.0356 5.18324 16.9742 5.33162C16.9129 5.48001 16.8229 5.61483 16.7093 5.72837C16.5958 5.84191 16.461 5.93193 16.3126 5.99329C16.1642 6.05464 16.0052 6.08612 15.8446 6.08592Z" fill="white"/>
</svg>
