<svg width="180" height="59" viewBox="0 0 180 59" fill="none" xmlns="http://www.w3.org/2000/svg">
<path d="M3 36.0971C3.18338 39.6981 4.53719 42.8081 7.7893 45.1163C9.99169 46.6795 14.4943 47.7504 20.2415 45.1163C25.9887 42.4823 35.1635 28.348 37.8821 24.6025C45.066 14.7051 53.3463 11.6259 65.0215 12.8688C72.5247 13.6676 78.8877 16.0708 87.4514 25.2415C99.8237 38.4909 105.491 66.6682 93.5178 55.0142C86.5142 48.1973 101.66 51.9807 107.407 35.6971C110.048 28.2129 113.314 20.531 118.422 18.4556" stroke="white"/>
<path d="M131.469 7.59203C132.608 6.89639 135.255 6.54501 136.056 7.58158C136.88 8.64776 135.538 10.6873 134.398 11.3829L130.512 13.7546L131.189 21.0082C131.226 21.4174 131.014 21.8166 130.631 22.0505L128.758 23.1936C128.405 23.4092 127.915 23.2638 127.778 22.9027L125.487 16.8219L122.057 18.9149L121.936 21.4995C121.927 21.6794 121.824 21.8468 121.656 21.9494L120.257 22.803C119.999 22.9606 119.645 22.9018 119.448 22.6471C119.439 22.6353 119.416 22.5931 119.398 22.5473L117.926 18.6467L114.358 16.0258C114.316 15.9946 114.28 15.9598 114.25 15.9213C114.074 15.6933 114.139 15.3789 114.397 15.2213L115.796 14.3676C115.964 14.2651 116.177 14.2398 116.369 14.2968L119.127 15.124L122.557 13.031L116.993 8.94758C116.662 8.70359 116.686 8.24578 117.039 8.03017L118.912 6.88705C119.295 6.65314 119.789 6.61976 120.207 6.799L127.583 9.96369L131.469 7.59203Z" fill="#FF6F6B"/>
<path d="M9.168 25.6774C10.624 25.6774 11.888 25.9174 12.96 26.3974C14.048 26.8774 14.88 27.5654 15.456 28.4614C16.032 29.3574 16.32 30.4214 16.32 31.6534C16.32 32.8694 16.032 33.9334 15.456 34.8454C14.88 35.7414 14.048 36.4294 12.96 36.9094C11.888 37.3894 10.624 37.6294 9.168 37.6294H5.376V42.4774H2.256V25.6774H9.168ZM9.024 34.9894C10.384 34.9894 11.416 34.7014 12.12 34.1254C12.824 33.5494 13.176 32.7254 13.176 31.6534C13.176 30.5814 12.824 29.7574 12.12 29.1814C11.416 28.6054 10.384 28.3174 9.024 28.3174H5.376V34.9894H9.024ZM26.6541 29.5174C28.2701 29.5174 29.5661 29.9894 30.5421 30.9334C31.5181 31.8774 32.0061 33.2774 32.0061 35.1334V42.4774H29.0061V35.5174C29.0061 34.3974 28.7421 33.5574 28.2141 32.9974C27.6861 32.4214 26.9341 32.1334 25.9581 32.1334C24.8541 32.1334 23.9821 32.4694 23.3421 33.1414C22.7021 33.7974 22.3821 34.7494 22.3821 35.9974V42.4774H19.3821V24.6694H22.3821V31.1494C22.8781 30.6214 23.4861 30.2214 24.2061 29.9494C24.9421 29.6614 25.7581 29.5174 26.6541 29.5174ZM43.0838 29.5174C44.6998 29.5174 45.9958 29.9894 46.9718 30.9334C47.9478 31.8774 48.4358 33.2774 48.4358 35.1334V42.4774H45.4358V35.5174C45.4358 34.3974 45.1718 33.5574 44.6438 32.9974C44.1158 32.4214 43.3638 32.1334 42.3878 32.1334C41.2838 32.1334 40.4118 32.4694 39.7718 33.1414C39.1318 33.7974 38.8118 34.7494 38.8118 35.9974V42.4774H35.8118V29.6614H38.6678V31.3174C39.1638 30.7254 39.7878 30.2774 40.5398 29.9734C41.2918 29.6694 42.1398 29.5174 43.0838 29.5174ZM58.4546 40.1014C59.8466 40.1014 61.0066 39.6374 61.9346 38.7094L63.5186 40.5574C62.9586 41.2454 62.2386 41.7654 61.3586 42.1174C60.4786 42.4694 59.4866 42.6454 58.3826 42.6454C56.9746 42.6454 55.7346 42.3654 54.6626 41.8054C53.5906 41.2454 52.7586 40.4694 52.1666 39.4774C51.5906 38.4694 51.3026 37.3334 51.3026 36.0694C51.3026 34.8214 51.5826 33.7014 52.1426 32.7094C52.7186 31.7014 53.5026 30.9174 54.4946 30.3574C55.5026 29.7974 56.6386 29.5174 57.9026 29.5174C59.1026 29.5174 60.1906 29.7814 61.1666 30.3094C62.1586 30.8214 62.9426 31.5654 63.5186 32.5414C64.0946 33.5014 64.3826 34.6294 64.3826 35.9254L54.5666 37.8454C54.8706 38.5814 55.3586 39.1414 56.0306 39.5254C56.7026 39.9094 57.5106 40.1014 58.4546 40.1014ZM57.9026 31.9174C56.7986 31.9174 55.9026 32.2774 55.2146 32.9974C54.5426 33.7174 54.2066 34.6854 54.2066 35.9014V35.9254L61.4546 34.5334C61.2466 33.7494 60.8226 33.1174 60.1826 32.6374C59.5586 32.1574 58.7986 31.9174 57.9026 31.9174ZM71.2249 42.6454C70.1849 42.6454 69.1689 42.5094 68.1769 42.2374C67.1849 41.9654 66.3929 41.6214 65.8009 41.2054L66.9529 38.9254C67.5289 39.3094 68.2169 39.6214 69.0169 39.8614C69.8329 40.0854 70.6329 40.1974 71.4169 40.1974C73.2089 40.1974 74.1049 39.7254 74.1049 38.7814C74.1049 38.3334 73.8729 38.0214 73.4089 37.8454C72.9609 37.6694 72.2329 37.5014 71.2249 37.3414C70.1689 37.1814 69.3049 36.9974 68.6329 36.7894C67.9769 36.5814 67.4009 36.2214 66.9049 35.7094C66.4249 35.1814 66.1849 34.4534 66.1849 33.5254C66.1849 32.3094 66.6889 31.3414 67.6969 30.6214C68.7209 29.8854 70.0969 29.5174 71.8249 29.5174C72.7049 29.5174 73.5849 29.6214 74.4649 29.8294C75.3449 30.0214 76.0649 30.2854 76.6249 30.6214L75.4729 32.9014C74.3849 32.2614 73.1609 31.9414 71.8009 31.9414C70.9209 31.9414 70.2489 32.0774 69.7849 32.3494C69.3369 32.6054 69.1129 32.9494 69.1129 33.3814C69.1129 33.8614 69.3529 34.2054 69.8329 34.4134C70.3289 34.6054 71.0889 34.7894 72.1129 34.9654C73.1369 35.1254 73.9769 35.3094 74.6329 35.5174C75.2889 35.7254 75.8489 36.0774 76.3129 36.5734C76.7929 37.0694 77.0329 37.7734 77.0329 38.6854C77.0329 39.8854 76.5129 40.8454 75.4729 41.5654C74.4329 42.2854 73.0169 42.6454 71.2249 42.6454ZM80.5764 42.6454C80.0324 42.6454 79.5684 42.4614 79.1844 42.0934C78.8004 41.7094 78.6084 41.2294 78.6084 40.6534C78.6084 40.0614 78.7924 39.5814 79.1604 39.2134C79.5444 38.8454 80.0164 38.6614 80.5764 38.6614C81.1364 38.6614 81.6004 38.8454 81.9684 39.2134C82.3524 39.5814 82.5444 40.0614 82.5444 40.6534C82.5444 41.2294 82.3524 41.7094 81.9684 42.0934C81.5844 42.4614 81.1204 42.6454 80.5764 42.6454ZM104.061 29.8534C102.477 28.9574 100.829 28.4134 99.1166 28.2214V42.4774H95.9966V28.2214C94.2686 28.4134 92.6126 28.9574 91.0286 29.8534L89.9486 27.4534C91.0686 26.7814 92.2686 26.2774 93.5486 25.9414C94.8446 25.6054 96.1726 25.4374 97.5326 25.4374C98.8926 25.4374 100.221 25.6054 101.517 25.9414C102.813 26.2774 104.021 26.7814 105.141 27.4534L104.061 29.8534ZM109.543 31.5334C110.407 30.1894 111.927 29.5174 114.103 29.5174V32.3734C113.847 32.3254 113.615 32.3014 113.407 32.3014C112.239 32.3014 111.327 32.6454 110.671 33.3334C110.015 34.0054 109.687 34.9814 109.687 36.2614V42.4774H106.687V29.6614H109.543V31.5334ZM129.059 29.6614V42.4774H126.203V40.8214C125.707 41.4294 125.091 41.8854 124.355 42.1894C123.635 42.4934 122.835 42.6454 121.955 42.6454C120.707 42.6454 119.587 42.3734 118.595 41.8294C117.619 41.2854 116.851 40.5174 116.291 39.5254C115.747 38.5334 115.475 37.3814 115.475 36.0694C115.475 34.7574 115.747 33.6134 116.291 32.6374C116.851 31.6454 117.619 30.8774 118.595 30.3334C119.587 29.7894 120.707 29.5174 121.955 29.5174C122.787 29.5174 123.547 29.6614 124.235 29.9494C124.939 30.2374 125.547 30.6614 126.059 31.2214V29.6614H129.059ZM122.291 40.0774C123.395 40.0774 124.307 39.7094 125.027 38.9734C125.747 38.2374 126.107 37.2694 126.107 36.0694C126.107 34.8694 125.747 33.9014 125.027 33.1654C124.307 32.4294 123.395 32.0614 122.291 32.0614C121.187 32.0614 120.275 32.4294 119.555 33.1654C118.851 33.9014 118.499 34.8694 118.499 36.0694C118.499 37.2694 118.851 38.2374 119.555 38.9734C120.275 39.7094 121.187 40.0774 122.291 40.0774ZM144.984 29.6614L139.488 42.4774H136.392L130.896 29.6614H134.016L138 39.1654L142.104 29.6614H144.984ZM152.603 40.1014C153.995 40.1014 155.155 39.6374 156.083 38.7094L157.667 40.5574C157.107 41.2454 156.387 41.7654 155.507 42.1174C154.627 42.4694 153.635 42.6454 152.531 42.6454C151.123 42.6454 149.883 42.3654 148.811 41.8054C147.739 41.2454 146.907 40.4694 146.315 39.4774C145.739 38.4694 145.451 37.3334 145.451 36.0694C145.451 34.8214 145.731 33.7014 146.291 32.7094C146.867 31.7014 147.651 30.9174 148.643 30.3574C149.651 29.7974 150.787 29.5174 152.051 29.5174C153.251 29.5174 154.339 29.7814 155.315 30.3094C156.307 30.8214 157.091 31.5654 157.667 32.5414C158.243 33.5014 158.531 34.6294 158.531 35.9254L148.715 37.8454C149.019 38.5814 149.507 39.1414 150.179 39.5254C150.851 39.9094 151.659 40.1014 152.603 40.1014ZM152.051 31.9174C150.947 31.9174 150.051 32.2774 149.363 32.9974C148.691 33.7174 148.355 34.6854 148.355 35.9014V35.9254L155.603 34.5334C155.395 33.7494 154.971 33.1174 154.331 32.6374C153.707 32.1574 152.947 31.9174 152.051 31.9174ZM165.637 42.6454C164.309 42.6454 163.269 42.2854 162.517 41.5654C161.781 40.8294 161.413 39.7974 161.413 38.4694V24.6694H164.413V38.2534C164.413 39.5334 165.013 40.1734 166.213 40.1734C166.613 40.1734 166.973 40.0934 167.293 39.9334L167.437 42.3334C166.877 42.5414 166.277 42.6454 165.637 42.6454ZM173.436 42.6454C172.396 42.6454 171.38 42.5094 170.388 42.2374C169.396 41.9654 168.604 41.6214 168.012 41.2054L169.164 38.9254C169.74 39.3094 170.428 39.6214 171.228 39.8614C172.044 40.0854 172.844 40.1974 173.628 40.1974C175.42 40.1974 176.316 39.7254 176.316 38.7814C176.316 38.3334 176.084 38.0214 175.62 37.8454C175.172 37.6694 174.444 37.5014 173.436 37.3414C172.38 37.1814 171.516 36.9974 170.844 36.7894C170.188 36.5814 169.612 36.2214 169.116 35.7094C168.636 35.1814 168.396 34.4534 168.396 33.5254C168.396 32.3094 168.9 31.3414 169.908 30.6214C170.932 29.8854 172.308 29.5174 174.036 29.5174C174.916 29.5174 175.796 29.6214 176.676 29.8294C177.556 30.0214 178.276 30.2854 178.836 30.6214L177.684 32.9014C176.596 32.2614 175.372 31.9414 174.012 31.9414C173.132 31.9414 172.46 32.0774 171.996 32.3494C171.548 32.6054 171.324 32.9494 171.324 33.3814C171.324 33.8614 171.564 34.2054 172.044 34.4134C172.54 34.6054 173.3 34.7894 174.324 34.9654C175.348 35.1254 176.188 35.3094 176.844 35.5174C177.5 35.7254 178.06 36.0774 178.524 36.5734C179.004 37.0694 179.244 37.7734 179.244 38.6854C179.244 39.8854 178.724 40.8454 177.684 41.5654C176.644 42.2854 175.228 42.6454 173.436 42.6454Z" fill="white"/>
</svg>
