<svg width="208" height="22" viewBox="0 0 208 22" fill="none" xmlns="http://www.w3.org/2000/svg">
<path d="M8.696 1.98935C10.3947 1.98935 11.8693 2.26935 13.12 2.82936C14.3893 3.38935 15.36 4.19202 16.032 5.23735C16.704 6.28269 17.04 7.52402 17.04 8.96135C17.04 10.38 16.704 11.6214 16.032 12.6854C15.36 13.7307 14.3893 14.5334 13.12 15.0934C11.8693 15.6534 10.3947 15.9334 8.696 15.9334H4.272V21.5894H0.632V1.98935H8.696ZM8.528 12.8534C10.1147 12.8534 11.3187 12.5174 12.14 11.8454C12.9613 11.1734 13.372 10.212 13.372 8.96135C13.372 7.71069 12.9613 6.74936 12.14 6.07735C11.3187 5.40535 10.1147 5.06935 8.528 5.06935H4.272V12.8534H8.528ZM29.0964 6.46935C30.9817 6.46935 32.4937 7.02002 33.6324 8.12135C34.7711 9.22269 35.3404 10.856 35.3404 13.0214V21.5894H31.8404V13.4694C31.8404 12.1627 31.5324 11.1827 30.9164 10.5294C30.3004 9.85735 29.4231 9.52135 28.2844 9.52135C26.9964 9.52135 25.9791 9.91335 25.2324 10.6974C24.4857 11.4627 24.1124 12.5734 24.1124 14.0294V21.5894H20.6124V0.813354H24.1124V8.37335C24.6911 7.75736 25.4004 7.29069 26.2404 6.97336C27.0991 6.63735 28.0511 6.46935 29.0964 6.46935ZM48.2644 6.46935C50.1497 6.46935 51.6617 7.02002 52.8004 8.12135C53.939 9.22269 54.5084 10.856 54.5084 13.0214V21.5894H51.0084V13.4694C51.0084 12.1627 50.7004 11.1827 50.0844 10.5294C49.4684 9.85735 48.591 9.52135 47.4524 9.52135C46.1644 9.52135 45.147 9.91335 44.4004 10.6974C43.6537 11.4627 43.2804 12.5734 43.2804 14.0294V21.5894H39.7804V6.63735H43.1124V8.56935C43.691 7.87869 44.419 7.35602 45.2964 7.00135C46.1737 6.64669 47.163 6.46935 48.2644 6.46935ZM66.1971 18.8174C67.8211 18.8174 69.1744 18.276 70.2571 17.1934L72.1051 19.3494C71.4517 20.152 70.6117 20.7587 69.5851 21.1694C68.5584 21.58 67.4011 21.7854 66.1131 21.7854C64.4704 21.7854 63.0237 21.4587 61.7731 20.8054C60.5224 20.152 59.5517 19.2467 58.8611 18.0894C58.1891 16.9134 57.8531 15.588 57.8531 14.1134C57.8531 12.6574 58.1797 11.3507 58.8331 10.1934C59.5051 9.01735 60.4197 8.10269 61.5771 7.44936C62.7531 6.79602 64.0784 6.46935 65.5531 6.46935C66.9531 6.46935 68.2224 6.77735 69.3611 7.39335C70.5184 7.99069 71.4331 8.85869 72.1051 9.99735C72.7771 11.1174 73.1131 12.4334 73.1131 13.9454L61.6611 16.1854C62.0157 17.044 62.5851 17.6974 63.3691 18.1454C64.1531 18.5934 65.0957 18.8174 66.1971 18.8174ZM65.5531 9.26935C64.2651 9.26935 63.2197 9.68935 62.4171 10.5294C61.6331 11.3694 61.2411 12.4987 61.2411 13.9174V13.9454L69.6971 12.3214C69.4544 11.4067 68.9597 10.6694 68.2131 10.1094C67.4851 9.54935 66.5984 9.26935 65.5531 9.26935ZM81.0957 21.7854C79.8824 21.7854 78.697 21.6267 77.5397 21.3094C76.3824 20.992 75.4584 20.5907 74.7677 20.1054L76.1117 17.4454C76.7837 17.8934 77.5864 18.2574 78.5197 18.5374C79.4717 18.7987 80.405 18.9294 81.3197 18.9294C83.4104 18.9294 84.4557 18.3787 84.4557 17.2774C84.4557 16.7547 84.185 16.3907 83.6437 16.1854C83.121 15.98 82.2717 15.784 81.0957 15.5974C79.8637 15.4107 78.8557 15.196 78.0717 14.9534C77.3064 14.7107 76.6344 14.2907 76.0557 13.6934C75.4957 13.0774 75.2157 12.228 75.2157 11.1454C75.2157 9.72669 75.8037 8.59735 76.9797 7.75735C78.1744 6.89869 79.7797 6.46935 81.7957 6.46935C82.8224 6.46935 83.849 6.59069 84.8757 6.83336C85.9024 7.05735 86.7424 7.36535 87.3957 7.75735L86.0517 10.4174C84.7824 9.67069 83.3544 9.29736 81.7677 9.29736C80.741 9.29736 79.957 9.45602 79.4157 9.77335C78.893 10.072 78.6317 10.4734 78.6317 10.9774C78.6317 11.5374 78.9117 11.9387 79.4717 12.1814C80.0504 12.4054 80.937 12.62 82.1317 12.8254C83.3264 13.012 84.3064 13.2267 85.0717 13.4694C85.837 13.712 86.4904 14.1227 87.0317 14.7014C87.5917 15.28 87.8717 16.1014 87.8717 17.1654C87.8717 18.5654 87.265 19.6854 86.0517 20.5254C84.8384 21.3654 83.1864 21.7854 81.0957 21.7854ZM92.0058 21.7854C91.3712 21.7854 90.8298 21.5707 90.3818 21.1414C89.9338 20.6934 89.7098 20.1334 89.7098 19.4614C89.7098 18.7707 89.9245 18.2107 90.3538 17.7814C90.8018 17.352 91.3525 17.1374 92.0058 17.1374C92.6592 17.1374 93.2005 17.352 93.6298 17.7814C94.0778 18.2107 94.3018 18.7707 94.3018 19.4614C94.3018 20.1334 94.0778 20.6934 93.6298 21.1414C93.1818 21.5707 92.6405 21.7854 92.0058 21.7854ZM119.404 6.86135C117.556 5.81602 115.633 5.18135 113.636 4.95735V21.5894H109.996V4.95735C107.98 5.18135 106.048 5.81602 104.2 6.86135L102.94 4.06135C104.247 3.27735 105.647 2.68935 107.14 2.29736C108.652 1.90535 110.201 1.70935 111.788 1.70935C113.375 1.70935 114.924 1.90535 116.436 2.29736C117.948 2.68935 119.357 3.27735 120.664 4.06135L119.404 6.86135ZM125.8 8.82135C126.808 7.25335 128.581 6.46935 131.12 6.46935V9.80135C130.821 9.74535 130.551 9.71735 130.308 9.71735C128.945 9.71735 127.881 10.1187 127.116 10.9214C126.351 11.7054 125.968 12.844 125.968 14.3374V21.5894H122.468V6.63735H125.8V8.82135ZM148.568 6.63735V21.5894H145.236V19.6574C144.658 20.3667 143.939 20.8987 143.08 21.2534C142.24 21.608 141.307 21.7854 140.28 21.7854C138.824 21.7854 137.518 21.468 136.36 20.8334C135.222 20.1987 134.326 19.3027 133.672 18.1454C133.038 16.988 132.72 15.644 132.72 14.1134C132.72 12.5827 133.038 11.248 133.672 10.1094C134.326 8.95202 135.222 8.05602 136.36 7.42135C137.518 6.78669 138.824 6.46935 140.28 6.46935C141.251 6.46935 142.138 6.63735 142.94 6.97336C143.762 7.30936 144.471 7.80402 145.068 8.45736V6.63735H148.568ZM140.672 18.7894C141.96 18.7894 143.024 18.36 143.864 17.5014C144.704 16.6427 145.124 15.5134 145.124 14.1134C145.124 12.7134 144.704 11.584 143.864 10.7254C143.024 9.86669 141.96 9.43736 140.672 9.43736C139.384 9.43736 138.32 9.86669 137.48 10.7254C136.659 11.584 136.248 12.7134 136.248 14.1134C136.248 15.5134 136.659 16.6427 137.48 17.5014C138.32 18.36 139.384 18.7894 140.672 18.7894ZM167.148 6.63735L160.736 21.5894H157.124L150.712 6.63735H154.352L159 17.7254L163.788 6.63735H167.148ZM176.037 18.8174C177.661 18.8174 179.014 18.276 180.097 17.1934L181.945 19.3494C181.292 20.152 180.452 20.7587 179.425 21.1694C178.398 21.58 177.241 21.7854 175.953 21.7854C174.31 21.7854 172.864 21.4587 171.613 20.8054C170.362 20.152 169.392 19.2467 168.701 18.0894C168.029 16.9134 167.693 15.588 167.693 14.1134C167.693 12.6574 168.02 11.3507 168.673 10.1934C169.345 9.01735 170.26 8.10269 171.417 7.44936C172.593 6.79602 173.918 6.46935 175.393 6.46935C176.793 6.46935 178.062 6.77735 179.201 7.39335C180.358 7.99069 181.273 8.85869 181.945 9.99735C182.617 11.1174 182.953 12.4334 182.953 13.9454L171.501 16.1854C171.856 17.044 172.425 17.6974 173.209 18.1454C173.993 18.5934 174.936 18.8174 176.037 18.8174ZM175.393 9.26935C174.105 9.26935 173.06 9.68935 172.257 10.5294C171.473 11.3694 171.081 12.4987 171.081 13.9174V13.9454L179.537 12.3214C179.294 11.4067 178.8 10.6694 178.053 10.1094C177.325 9.54935 176.438 9.26935 175.393 9.26935ZM191.244 21.7854C189.694 21.7854 188.481 21.3654 187.604 20.5254C186.745 19.6667 186.316 18.4627 186.316 16.9134V0.813354H189.816V16.6614C189.816 18.1547 190.516 18.9014 191.916 18.9014C192.382 18.9014 192.802 18.808 193.176 18.6214L193.344 21.4214C192.69 21.664 191.99 21.7854 191.244 21.7854ZM200.342 21.7854C199.128 21.7854 197.943 21.6267 196.786 21.3094C195.628 20.992 194.704 20.5907 194.014 20.1054L195.358 17.4454C196.03 17.8934 196.832 18.2574 197.766 18.5374C198.718 18.7987 199.651 18.9294 200.566 18.9294C202.656 18.9294 203.702 18.3787 203.702 17.2774C203.702 16.7547 203.431 16.3907 202.89 16.1854C202.367 15.98 201.518 15.784 200.342 15.5974C199.11 15.4107 198.102 15.196 197.318 14.9534C196.552 14.7107 195.88 14.2907 195.302 13.6934C194.742 13.0774 194.462 12.228 194.462 11.1454C194.462 9.72669 195.05 8.59735 196.226 7.75735C197.42 6.89869 199.026 6.46935 201.042 6.46935C202.068 6.46935 203.095 6.59069 204.122 6.83336C205.148 7.05735 205.988 7.36535 206.642 7.75735L205.298 10.4174C204.028 9.67069 202.6 9.29736 201.014 9.29736C199.987 9.29736 199.203 9.45602 198.662 9.77335C198.139 10.072 197.878 10.4734 197.878 10.9774C197.878 11.5374 198.158 11.9387 198.718 12.1814C199.296 12.4054 200.183 12.62 201.378 12.8254C202.572 13.012 203.552 13.2267 204.318 13.4694C205.083 13.712 205.736 14.1227 206.278 14.7014C206.838 15.28 207.118 16.1014 207.118 17.1654C207.118 18.5654 206.511 19.6854 205.298 20.5254C204.084 21.3654 202.432 21.7854 200.342 21.7854Z" fill="white"/>
</svg>
