<svg width="15" height="14" viewBox="0 0 15 14" fill="none" xmlns="http://www.w3.org/2000/svg">
<path d="M13.9033 0.0397949C14.0402 0.0691531 14.1657 0.138097 14.2646 0.237061C14.3636 0.336421 14.432 0.462199 14.4609 0.599365C14.4899 0.736587 14.4781 0.87962 14.4277 1.0105V1.01147L9.69629 13.5085C9.64057 13.6472 9.54483 13.7659 9.4209 13.8494C9.29663 13.9329 9.14973 13.9772 9 13.9763H8.96973C8.67418 13.963 8.42916 13.7655 8.33203 13.4841H8.33105C8.32906 13.4787 8.3279 13.4733 8.32617 13.4675L8.3252 13.4656L6.49219 9.17163C6.46877 9.09271 6.46681 9.00871 6.48535 8.92847C6.50415 8.8474 6.54393 8.77263 6.60059 8.71167L6.59961 8.71069L13.0166 1.82886C13.0392 1.80621 13.0571 1.77931 13.0693 1.74976C13.0816 1.72011 13.0879 1.68809 13.0879 1.65601C13.0879 1.62415 13.0815 1.59269 13.0693 1.56323C13.0571 1.53358 13.0393 1.50585 13.0166 1.48315C12.994 1.46056 12.967 1.44269 12.9375 1.43042C12.9079 1.41816 12.8758 1.41189 12.8438 1.41187C12.8117 1.41187 12.7797 1.41814 12.75 1.43042C12.7353 1.43652 12.7212 1.44408 12.708 1.45288L12.6709 1.48315L5.78516 7.89917C5.7242 7.95582 5.64941 7.9956 5.56836 8.0144C5.50741 8.02848 5.44413 8.03043 5.38281 8.02026L5.32227 8.00659L1.03418 6.17456H1.03223L1.01953 6.17065C0.877658 6.12318 0.753784 6.03231 0.665039 5.91187C0.576511 5.7916 0.526831 5.6471 0.523438 5.4978C0.520128 5.34833 0.563264 5.2011 0.646484 5.0769C0.728591 4.95447 0.846389 4.86052 0.983398 4.8064L0.991211 4.80347L13.4922 0.0720215C13.6231 0.0222322 13.7664 0.0104692 13.9033 0.0397949Z" fill="#276968" stroke="#276968" stroke-width="0.046875"/>
</svg>
