<svg width="23" height="22" viewBox="0 0 23 22" fill="none" xmlns="http://www.w3.org/2000/svg">
<path d="M17.9687 21.5C17.8109 21.5006 17.6568 21.4514 17.5286 21.3594L11.5 16.9887L5.47139 21.3594C5.34259 21.4528 5.18742 21.5028 5.02832 21.5022C4.86921 21.5017 4.71441 21.4505 4.58629 21.3561C4.45818 21.2618 4.36339 21.1291 4.31563 20.9774C4.26787 20.8256 4.26961 20.6626 4.32061 20.5119L6.67186 13.5476L0.578107 9.36873C0.446113 9.27832 0.346491 9.14806 0.293797 8.99699C0.241103 8.84593 0.2381 8.68197 0.285225 8.52907C0.33235 8.37618 0.427135 8.24236 0.55573 8.14717C0.684324 8.05198 0.83999 8.0004 0.999982 7.99998H8.5178L10.7865 1.01795C10.8354 0.867212 10.9308 0.735827 11.059 0.642643C11.1871 0.54946 11.3415 0.499268 11.5 0.499268C11.6584 0.499268 11.8128 0.54946 11.941 0.642643C12.0692 0.735827 12.1645 0.867212 12.2134 1.01795L14.4822 8.00233H22C22.1602 8.00225 22.3162 8.05346 22.4452 8.14847C22.5741 8.24348 22.6693 8.37729 22.7167 8.5303C22.7642 8.68331 22.7613 8.84749 22.7087 8.99878C22.6561 9.15008 22.5564 9.28055 22.4242 9.37108L16.3281 13.5476L18.678 20.51C18.716 20.6227 18.7267 20.7429 18.7092 20.8605C18.6917 20.9782 18.6464 21.09 18.5771 21.1868C18.5078 21.2835 18.4165 21.3623 18.3107 21.4168C18.2049 21.4713 18.0877 21.4998 17.9687 21.5Z" fill="#FE940A"/>
</svg>
