<svg width="18" height="18" viewBox="0 0 18 18" fill="none" xmlns="http://www.w3.org/2000/svg">
<path d="M9.98545e-05 6.73725C-0.00238072 6.88928 0.0414072 7.03848 0.125658 7.16505C0.209908 7.29163 0.330642 7.38961 0.47185 7.446L7.6726 10.3267L10.5533 17.5282C10.609 17.6675 10.7051 17.7869 10.8293 17.871C10.9535 17.9551 11.1001 18.0001 11.2501 18H11.2621C11.414 17.9976 11.5616 17.9491 11.6853 17.861C11.8091 17.7729 11.9032 17.6493 11.9551 17.5065L17.9551 1.0065C18.0042 0.872268 18.014 0.726797 17.9832 0.587218C17.9524 0.44764 17.8823 0.319766 17.7813 0.218656C17.6803 0.117547 17.5525 0.0474127 17.4129 0.0165136C17.2733 -0.0143854 17.1279 -0.00476254 16.9936 0.0442488L0.4936 6.04425C0.350774 6.09632 0.227123 6.19053 0.139002 6.31441C0.0508818 6.43828 0.00244525 6.58599 9.98545e-05 6.738V6.73725Z" fill="#37454D"/>
</svg>
