<svg width="24" height="17" viewBox="0 0 24 17" fill="none" xmlns="http://www.w3.org/2000/svg">
<path d="M23.4987 3.39502C23.3628 2.91025 23.0981 2.47136 22.7327 2.12502C22.357 1.76802 21.8965 1.51265 21.3947 1.38302C19.5167 0.888015 11.9927 0.888016 11.9927 0.888016C8.85599 0.852328 5.72009 1.00929 2.60266 1.35802C2.10085 1.49723 1.64123 1.7583 1.26466 2.11802C0.894664 2.47402 0.626664 2.91302 0.486664 3.39402C0.150357 5.20576 -0.0130439 7.04536 -0.00133594 8.88802C-0.0133359 10.729 0.149664 12.568 0.486664 14.382C0.623664 14.861 0.890664 15.298 1.26166 15.651C1.63266 16.004 2.09466 16.259 2.60266 16.394C4.50566 16.888 11.9927 16.888 11.9927 16.888C15.1333 16.9238 18.2732 16.7668 21.3947 16.418C21.8965 16.2884 22.357 16.033 22.7327 15.676C23.0979 15.3297 23.3623 14.8908 23.4977 14.406C23.8428 12.595 24.0105 10.7546 23.9987 8.91102C24.0246 7.05962 23.857 5.21058 23.4987 3.39402V3.39502ZM9.60066 12.312V5.46502L15.8607 8.88902L9.60066 12.312Z" fill="white"/>
</svg>
